<mxfile host="Electron" agent="Mozilla/5.0 (Windows NT 10.0; Win64; x64) AppleWebKit/537.36 (KHTML, like Gecko) draw.io/28.0.6 Chrome/138.0.7204.100 Electron/37.2.3 Safari/537.36" version="28.0.6">
  <diagram name="ER Diagram" id="ZSw9MZ8HgZOJONz4aIVH">
    <mxGraphModel dx="1426" dy="849" grid="1" gridSize="10" guides="1" tooltips="1" connect="1" arrows="1" fold="1" page="1" pageScale="1" pageWidth="827" pageHeight="1169" math="0" shadow="0">
      <root>
        <mxCell id="0" />
        <mxCell id="1" parent="0" />
        <mxCell id="UzqpKh3k6fW0DxtUS8XC-3" value="&lt;b&gt;AspNetRoles&lt;/b&gt;&lt;hr&gt;&lt;u&gt;Id&lt;/u&gt;: nvarchar(450) (PK)&lt;br&gt;Name: nvarchar(256) (nullable)&lt;br&gt;NormalizedName: nvarchar(256) (nullable)&lt;br&gt;ConcurrencyStamp: nvarchar(max) (nullable)" style="rounded=0;whiteSpace=wrap;html=1;container=1;collapsible=0;recursiveResize=0;fillColor=#dae8fc;strokeColor=#6c8ebf;align=left;" vertex="1" parent="1">
          <mxGeometry x="330" y="390" width="250" height="120" as="geometry" />
        </mxCell>
        <mxCell id="UzqpKh3k6fW0DxtUS8XC-4" value="&lt;b&gt;AspNetRoleClaims&lt;/b&gt;&lt;hr&gt;&lt;u&gt;Id&lt;/u&gt;: int (PK, IDENTITY)&lt;br&gt;RoleId: nvarchar(450) (FK)&lt;br&gt;ClaimType: nvarchar(max) (nullable)&lt;br&gt;ClaimValue: nvarchar(max) (nullable)" style="rounded=0;whiteSpace=wrap;html=1;container=1;collapsible=0;recursiveResize=0;fillColor=#dae8fc;strokeColor=#6c8ebf;align=left;" vertex="1" parent="1">
          <mxGeometry x="330" y="560" width="250" height="120" as="geometry" />
        </mxCell>
        <mxCell id="UzqpKh3k6fW0DxtUS8XC-5" value="&lt;b&gt;AspNetUsers&lt;/b&gt;&lt;hr&gt;&lt;u&gt;Id&lt;/u&gt;: nvarchar(450) (PK)&lt;br&gt;UserName: nvarchar(256) (nullable)&lt;br&gt;NormalizedUserName: nvarchar(256) (nullable)&lt;br&gt;Email: nvarchar(256) (nullable)&lt;br&gt;NormalizedEmail: nvarchar(256) (nullable)&lt;br&gt;EmailConfirmed: bit&lt;br&gt;PasswordHash: nvarchar(max) (nullable)&lt;br&gt;SecurityStamp: nvarchar(max) (nullable)&lt;br&gt;ConcurrencyStamp: nvarchar(max) (nullable)&lt;br&gt;PhoneNumber: nvarchar(max) (nullable)&lt;br&gt;PhoneNumberConfirmed: bit&lt;br&gt;TwoFactorEnabled: bit&lt;br&gt;LockoutEnd: datetimeoffset(7) (nullable)&lt;br&gt;LockoutEnabled: bit&lt;br&gt;AccessFailedCount: int" style="rounded=0;whiteSpace=wrap;html=1;container=1;collapsible=0;recursiveResize=0;fillColor=#dae8fc;strokeColor=#6c8ebf;align=left;" vertex="1" parent="1">
          <mxGeometry x="970" y="240" width="300" height="360" as="geometry" />
        </mxCell>
        <mxCell id="UzqpKh3k6fW0DxtUS8XC-6" value="&lt;b&gt;AspNetUserClaims&lt;/b&gt;&lt;hr&gt;&lt;u&gt;Id&lt;/u&gt;: int (PK, IDENTITY)&lt;br&gt;UserId: nvarchar(450) (FK)&lt;br&gt;ClaimType: nvarchar(max) (nullable)&lt;br&gt;ClaimValue: nvarchar(max) (nullable)" style="rounded=0;whiteSpace=wrap;html=1;container=1;collapsible=0;recursiveResize=0;fillColor=#dae8fc;strokeColor=#6c8ebf;align=left;" vertex="1" parent="1">
          <mxGeometry x="970" y="690" width="250" height="120" as="geometry" />
        </mxCell>
        <mxCell id="UzqpKh3k6fW0DxtUS8XC-7" value="&lt;b&gt;AspNetUserLogins&lt;/b&gt;&lt;hr&gt;&lt;u&gt;LoginProvider&lt;/u&gt;: nvarchar(450) (PK)&lt;br&gt;&lt;u&gt;ProviderKey&lt;/u&gt;: nvarchar(450) (PK)&lt;br&gt;ProviderDisplayName: nvarchar(max) (nullable)&lt;br&gt;UserId: nvarchar(450) (FK)" style="rounded=0;whiteSpace=wrap;html=1;container=1;collapsible=0;recursiveResize=0;fillColor=#dae8fc;strokeColor=#6c8ebf;align=left;" vertex="1" parent="1">
          <mxGeometry x="1370" y="240" width="250" height="120" as="geometry" />
        </mxCell>
        <mxCell id="UzqpKh3k6fW0DxtUS8XC-8" value="&lt;b&gt;AspNetUserRoles&lt;/b&gt;&lt;hr&gt;&lt;u&gt;UserId&lt;/u&gt;: nvarchar(450) (PK, FK)&lt;br&gt;&lt;u&gt;RoleId&lt;/u&gt;: nvarchar(450) (PK, FK)" style="rounded=0;whiteSpace=wrap;html=1;container=1;collapsible=0;recursiveResize=0;fillColor=#dae8fc;strokeColor=#6c8ebf;align=left;" vertex="1" parent="1">
          <mxGeometry x="520" y="290" width="250" height="80" as="geometry" />
        </mxCell>
        <mxCell id="UzqpKh3k6fW0DxtUS8XC-9" value="&lt;b&gt;AspNetUserTokens&lt;/b&gt;&lt;hr&gt;&lt;u&gt;UserId&lt;/u&gt;: nvarchar(450) (PK, FK)&lt;br&gt;&lt;u&gt;LoginProvider&lt;/u&gt;: nvarchar(450) (PK)&lt;br&gt;&lt;u&gt;Name&lt;/u&gt;: nvarchar(450) (PK)&lt;br&gt;Value: nvarchar(max) (nullable)" style="rounded=0;whiteSpace=wrap;html=1;container=1;collapsible=0;recursiveResize=0;fillColor=#dae8fc;strokeColor=#6c8ebf;align=left;" vertex="1" parent="1">
          <mxGeometry x="1370" y="390" width="250" height="120" as="geometry" />
        </mxCell>
        <mxCell id="UzqpKh3k6fW0DxtUS8XC-10" value="&lt;b&gt;C_Diagnoses&lt;/b&gt;&lt;hr&gt;&lt;u&gt;ID&lt;/u&gt;: int (PK, IDENTITY)&lt;br&gt;DiagnosisID: nvarchar(256)&lt;br&gt;Name: nvarchar(max) (nullable)&lt;br&gt;ValidThroughDate: datetime2(7)&lt;br&gt;TimestampRead: datetime2(7)&lt;br&gt;LastSynced: datetime2(7) (nullable)" style="rounded=0;whiteSpace=wrap;html=1;container=1;collapsible=0;recursiveResize=0;fillColor=#dae8fc;strokeColor=#6c8ebf;align=left;" vertex="1" parent="1">
          <mxGeometry x="330" y="790" width="250" height="160" as="geometry" />
        </mxCell>
        <mxCell id="UzqpKh3k6fW0DxtUS8XC-15" value="&lt;b&gt;Uttag&lt;/b&gt;&lt;hr&gt;&lt;u&gt;Id&lt;/u&gt;: int (PK, IDENTITY)&lt;br&gt;Name: nvarchar(max)&lt;br&gt;Date: datetime2(7)&lt;br&gt;Description: nvarchar(max) (nullable)&lt;br&gt;IsActive: bit" style="rounded=0;whiteSpace=wrap;html=1;container=1;collapsible=0;recursiveResize=0;fillColor=#dae8fc;strokeColor=#6c8ebf;align=left;" vertex="1" parent="1">
          <mxGeometry x="1770" y="240" width="250" height="140" as="geometry" />
        </mxCell>
        <mxCell id="UzqpKh3k6fW0DxtUS8XC-16" value="&lt;b&gt;UttagData&lt;/b&gt;&lt;hr&gt;&lt;u&gt;Id&lt;/u&gt;: int (PK, IDENTITY)&lt;br&gt;Uttag_Id: int (FK)&lt;br&gt;Name: nvarchar(max)&lt;br&gt;Description: nvarchar(max)&lt;br&gt;SqlCode: nvarchar(max)&lt;br&gt;CreatedAt: datetime2(7)&lt;br&gt;ChangedAt: datetime2(7)&lt;br&gt;ServerSource: nvarchar(max)" style="rounded=0;whiteSpace=wrap;html=1;container=1;collapsible=0;recursiveResize=0;fillColor=#dae8fc;strokeColor=#6c8ebf;align=left;" vertex="1" parent="1">
          <mxGeometry x="1770" y="440" width="250" height="200" as="geometry" />
        </mxCell>
        <mxCell id="UzqpKh3k6fW0DxtUS8XC-19" value="RoleId -&gt; Id" style="endArrow=ERoneToMany;html=1;fontFamily=Helvetica;fontSize=12;fontColor=#000000;verticalAlign=top;labelBackgroundColor=none;strokeColor=#000000;" edge="1" parent="1" source="UzqpKh3k6fW0DxtUS8XC-4" target="UzqpKh3k6fW0DxtUS8XC-3">
          <mxGeometry width="160" relative="1" as="geometry">
            <mxPoint x="455" y="560" as="sourcePoint" />
            <mxPoint x="455" y="510" as="targetPoint" />
          </mxGeometry>
        </mxCell>
        <mxCell id="UzqpKh3k6fW0DxtUS8XC-20" value="UserId -&gt; Id" style="endArrow=ERoneToMany;html=1;fontFamily=Helvetica;fontSize=12;fontColor=#000000;verticalAlign=top;labelBackgroundColor=none;strokeColor=#000000;" edge="1" parent="1" source="UzqpKh3k6fW0DxtUS8XC-6" target="UzqpKh3k6fW0DxtUS8XC-5">
          <mxGeometry width="160" relative="1" as="geometry">
            <mxPoint x="1095" y="690" as="sourcePoint" />
            <mxPoint x="1095" y="600" as="targetPoint" />
          </mxGeometry>
        </mxCell>
        <mxCell id="UzqpKh3k6fW0DxtUS8XC-21" value="UserId -&gt; Id" style="endArrow=ERoneToMany;html=1;fontFamily=Helvetica;fontSize=12;fontColor=#000000;verticalAlign=top;labelBackgroundColor=none;strokeColor=#000000;" edge="1" parent="1" source="UzqpKh3k6fW0DxtUS8XC-7" target="UzqpKh3k6fW0DxtUS8XC-5">
          <mxGeometry width="160" relative="1" as="geometry">
            <mxPoint x="1370" y="300" as="sourcePoint" />
            <mxPoint x="1270" y="300" as="targetPoint" />
          </mxGeometry>
        </mxCell>
        <mxCell id="UzqpKh3k6fW0DxtUS8XC-22" value="RoleId -&gt; Id" style="endArrow=ERoneToMany;html=1;fontFamily=Helvetica;fontSize=12;fontColor=#000000;verticalAlign=top;labelBackgroundColor=none;strokeColor=#000000;" edge="1" parent="1" source="UzqpKh3k6fW0DxtUS8XC-8" target="UzqpKh3k6fW0DxtUS8XC-3">
          <mxGeometry width="160" relative="1" as="geometry">
            <mxPoint x="555" y="330" as="sourcePoint" />
            <mxPoint x="455" y="390" as="targetPoint" />
            <Array as="points">
              <mxPoint x="455" y="330" />
              <mxPoint x="455" y="390" />
            </Array>
          </mxGeometry>
        </mxCell>
        <mxCell id="UzqpKh3k6fW0DxtUS8XC-23" value="UserId -&gt; Id" style="endArrow=ERoneToMany;html=1;fontFamily=Helvetica;fontSize=12;fontColor=#000000;verticalAlign=top;labelBackgroundColor=none;strokeColor=#000000;" edge="1" parent="1" source="UzqpKh3k6fW0DxtUS8XC-8" target="UzqpKh3k6fW0DxtUS8XC-5">
          <mxGeometry width="160" relative="1" as="geometry">
            <mxPoint x="995" y="330" as="sourcePoint" />
            <mxPoint x="970" y="420" as="targetPoint" />
            <Array as="points">
              <mxPoint x="995" y="330" />
              <mxPoint x="970" y="330" />
            </Array>
          </mxGeometry>
        </mxCell>
        <mxCell id="UzqpKh3k6fW0DxtUS8XC-24" value="UserId -&gt; Id" style="endArrow=ERoneToMany;html=1;fontFamily=Helvetica;fontSize=12;fontColor=#000000;verticalAlign=top;labelBackgroundColor=none;strokeColor=#000000;" edge="1" parent="1" source="UzqpKh3k6fW0DxtUS8XC-9" target="UzqpKh3k6fW0DxtUS8XC-5">
          <mxGeometry width="160" relative="1" as="geometry">
            <mxPoint x="1370" y="450" as="sourcePoint" />
            <mxPoint x="1270" y="450" as="targetPoint" />
          </mxGeometry>
        </mxCell>
        <mxCell id="UzqpKh3k6fW0DxtUS8XC-25" value="Uttag_Id -&gt; Id" style="endArrow=ERoneToMany;html=1;fontFamily=Helvetica;fontSize=12;fontColor=#000000;verticalAlign=top;labelBackgroundColor=none;strokeColor=#000000;" edge="1" parent="1" source="UzqpKh3k6fW0DxtUS8XC-16" target="UzqpKh3k6fW0DxtUS8XC-15">
          <mxGeometry width="160" relative="1" as="geometry">
            <mxPoint x="1895" y="440" as="sourcePoint" />
            <mxPoint x="1895" y="380" as="targetPoint" />
          </mxGeometry>
        </mxCell>
      </root>
    </mxGraphModel>
  </diagram>
</mxfile>
